<svg width="197" height="12" viewBox="0 0 197 12" fill="none" xmlns="http://www.w3.org/2000/svg">
<path opacity="0.8" d="M6.24609 9.89258H1.48828V1.13574H0.257812V11H6.24609V9.89258ZM10.6621 4.54004C11.8311 4.54004 12.6104 5.40137 12.6377 6.70703H8.57715C8.66602 5.40137 9.48633 4.54004 10.6621 4.54004ZM12.6035 9.09277C12.2959 9.74219 11.6533 10.0908 10.7031 10.0908C9.45215 10.0908 8.63867 9.16797 8.57715 7.71191V7.65723H13.875V7.20605C13.875 4.91602 12.665 3.50098 10.6758 3.50098C8.65234 3.50098 7.35352 5.00488 7.35352 7.32227C7.35352 9.65332 8.63184 11.1299 10.6758 11.1299C12.2891 11.1299 13.4238 10.3574 13.7793 9.09277H12.6035ZM16.2129 1.72363V3.63086H15.0234V4.61523H16.2129V9.08594C16.2129 10.4941 16.8213 11.0547 18.3389 11.0547C18.5713 11.0547 18.7969 11.0273 19.0293 10.9863V9.99512C18.8105 10.0156 18.6943 10.0225 18.4824 10.0225C17.7168 10.0225 17.3887 9.65332 17.3887 8.78516V4.61523H19.0293V3.63086H17.3887V1.72363H16.2129ZM22.0576 4.82031L23.1582 1.13574H21.8252L21.2031 4.82031H22.0576ZM24.1631 5.64746C24.1631 6.71387 24.792 7.30859 26.1729 7.64355L27.4375 7.95117C28.2236 8.14258 28.6064 8.48438 28.6064 8.99023C28.6064 9.66699 27.8955 10.1387 26.9043 10.1387C25.9609 10.1387 25.373 9.74219 25.1748 9.12012H23.9648C24.0947 10.3438 25.2227 11.1299 26.8633 11.1299C28.5381 11.1299 29.8164 10.2207 29.8164 8.90137C29.8164 7.8418 29.1465 7.24023 27.7588 6.90527L26.624 6.63184C25.7559 6.41992 25.3457 6.10547 25.3457 5.59961C25.3457 4.94336 26.0293 4.49902 26.9043 4.49902C27.793 4.49902 28.3672 4.88867 28.5244 5.47656H29.6865C29.5293 4.2666 28.4561 3.50098 26.9111 3.50098C25.3457 3.50098 24.1631 4.42383 24.1631 5.64746ZM41.752 9.89258H36.9941V1.13574H35.7637V11H41.752V9.89258ZM46.168 4.54004C47.3369 4.54004 48.1162 5.40137 48.1436 6.70703H44.083C44.1719 5.40137 44.9922 4.54004 46.168 4.54004ZM48.1094 9.09277C47.8018 9.74219 47.1592 10.0908 46.209 10.0908C44.958 10.0908 44.1445 9.16797 44.083 7.71191V7.65723H49.3809V7.20605C49.3809 4.91602 48.1709 3.50098 46.1816 3.50098C44.1582 3.50098 42.8594 5.00488 42.8594 7.32227C42.8594 9.65332 44.1377 11.1299 46.1816 11.1299C47.7949 11.1299 48.9297 10.3574 49.2852 9.09277H48.1094ZM53.4961 10.0977C52.6416 10.0977 52.0059 9.66016 52.0059 8.9082C52.0059 8.16992 52.498 7.78027 53.6191 7.70508L55.6016 7.5752V8.25195C55.6016 9.30469 54.7061 10.0977 53.4961 10.0977ZM53.2773 11.1299C54.2617 11.1299 55.0684 10.6992 55.5469 9.91309H55.6562V11H56.7773V5.95508C56.7773 4.42383 55.7725 3.50098 53.9746 3.50098C52.4023 3.50098 51.2402 4.28027 51.083 5.46289H52.2725C52.4365 4.88184 53.0518 4.54688 53.9336 4.54688C55.0342 4.54688 55.6016 5.0459 55.6016 5.95508V6.625L53.4756 6.75488C51.7598 6.85742 50.7891 7.61621 50.7891 8.93555C50.7891 10.2822 51.8486 11.1299 53.2773 11.1299ZM58.9512 11H60.127V6.43359C60.127 5.39453 60.9404 4.64258 62.0615 4.64258C62.2939 4.64258 62.7178 4.68359 62.8135 4.71094V3.53516C62.6631 3.51465 62.417 3.50098 62.2256 3.50098C61.248 3.50098 60.4004 4.00684 60.1816 4.72461H60.0723V3.63086H58.9512V11ZM64.4199 11H65.5957V6.63867C65.5957 5.34668 66.3545 4.56055 67.5303 4.56055C68.7061 4.56055 69.2666 5.18945 69.2666 6.51562V11H70.4424V6.22852C70.4424 4.47852 69.5195 3.50098 67.8652 3.50098C66.7373 3.50098 66.0195 3.97949 65.6504 4.79297H65.541V3.63086H64.4199V11ZM86.418 11V1.13574H84.9893L81.6123 9.29785H81.5029L78.126 1.13574H76.6973V11H77.8457V3.4668H77.9277L81.0381 10.9316H82.0771L85.1875 3.4668H85.2695V11H86.418ZM91.8115 11.1299C93.9102 11.1299 95.209 9.68066 95.209 7.31543C95.209 4.94336 93.9102 3.50098 91.8115 3.50098C89.7129 3.50098 88.4141 4.94336 88.4141 7.31543C88.4141 9.68066 89.7129 11.1299 91.8115 11.1299ZM91.8115 10.0703C90.417 10.0703 89.6309 9.05859 89.6309 7.31543C89.6309 5.56543 90.417 4.56055 91.8115 4.56055C93.2061 4.56055 93.9922 5.56543 93.9922 7.31543C93.9922 9.05859 93.2061 10.0703 91.8115 10.0703ZM97.0547 11H98.2305V6.43359C98.2305 5.39453 99.0439 4.64258 100.165 4.64258C100.397 4.64258 100.821 4.68359 100.917 4.71094V3.53516C100.767 3.51465 100.521 3.50098 100.329 3.50098C99.3516 3.50098 98.5039 4.00684 98.2852 4.72461H98.1758V3.63086H97.0547V11ZM105.121 4.54004C106.29 4.54004 107.069 5.40137 107.097 6.70703H103.036C103.125 5.40137 103.945 4.54004 105.121 4.54004ZM107.062 9.09277C106.755 9.74219 106.112 10.0908 105.162 10.0908C103.911 10.0908 103.098 9.16797 103.036 7.71191V7.65723H108.334V7.20605C108.334 4.91602 107.124 3.50098 105.135 3.50098C103.111 3.50098 101.812 5.00488 101.812 7.32227C101.812 9.65332 103.091 11.1299 105.135 11.1299C106.748 11.1299 107.883 10.3574 108.238 9.09277H107.062ZM120.693 11H121.985L118.349 1.13574H117.132L113.495 11H114.787L115.778 8.17676H119.702L120.693 11ZM117.686 2.72852H117.795L119.34 7.13086H116.141L117.686 2.72852ZM127.229 11.1299C129.095 11.1299 130.318 9.61914 130.318 7.31543C130.318 4.99805 129.102 3.50098 127.229 3.50098C126.217 3.50098 125.321 4 124.918 4.79297H124.809V0.705078H123.633V11H124.754V9.82422H124.863C125.328 10.6445 126.203 11.1299 127.229 11.1299ZM126.955 4.56055C128.302 4.56055 129.102 5.59277 129.102 7.31543C129.102 9.03809 128.302 10.0703 126.955 10.0703C125.615 10.0703 124.781 9.01758 124.781 7.31543C124.781 5.61328 125.615 4.56055 126.955 4.56055ZM135.192 11.1299C137.291 11.1299 138.59 9.68066 138.59 7.31543C138.59 4.94336 137.291 3.50098 135.192 3.50098C133.094 3.50098 131.795 4.94336 131.795 7.31543C131.795 9.68066 133.094 11.1299 135.192 11.1299ZM135.192 10.0703C133.798 10.0703 133.012 9.05859 133.012 7.31543C133.012 5.56543 133.798 4.56055 135.192 4.56055C136.587 4.56055 137.373 5.56543 137.373 7.31543C137.373 9.05859 136.587 10.0703 135.192 10.0703ZM146.396 3.63086H145.221V7.99219C145.221 9.28418 144.51 10.0566 143.211 10.0566C142.035 10.0566 141.543 9.44141 141.543 8.11523V3.63086H140.367V8.40234C140.367 10.1455 141.229 11.1299 142.883 11.1299C144.011 11.1299 144.797 10.665 145.166 9.84473H145.275V11H146.396V3.63086ZM149.104 1.72363V3.63086H147.914V4.61523H149.104V9.08594C149.104 10.4941 149.712 11.0547 151.229 11.0547C151.462 11.0547 151.688 11.0273 151.92 10.9863V9.99512C151.701 10.0156 151.585 10.0225 151.373 10.0225C150.607 10.0225 150.279 9.65332 150.279 8.78516V4.61523H151.92V3.63086H150.279V1.72363H149.104ZM157.799 1.13574V11H159.029V7.47949H161.511C163.363 7.47949 164.683 6.17383 164.683 4.32812C164.683 2.44824 163.391 1.13574 161.524 1.13574H157.799ZM159.029 2.22949H161.203C162.632 2.22949 163.418 2.97461 163.418 4.32812C163.418 5.63379 162.604 6.38574 161.203 6.38574H159.029V2.22949ZM166.617 11H167.793V0.705078H166.617V11ZM172.346 10.0977C171.491 10.0977 170.855 9.66016 170.855 8.9082C170.855 8.16992 171.348 7.78027 172.469 7.70508L174.451 7.5752V8.25195C174.451 9.30469 173.556 10.0977 172.346 10.0977ZM172.127 11.1299C173.111 11.1299 173.918 10.6992 174.396 9.91309H174.506V11H175.627V5.95508C175.627 4.42383 174.622 3.50098 172.824 3.50098C171.252 3.50098 170.09 4.28027 169.933 5.46289H171.122C171.286 4.88184 171.901 4.54688 172.783 4.54688C173.884 4.54688 174.451 5.0459 174.451 5.95508V6.625L172.325 6.75488C170.609 6.85742 169.639 7.61621 169.639 8.93555C169.639 10.2822 170.698 11.1299 172.127 11.1299ZM177.801 11H178.977V6.63867C178.977 5.34668 179.735 4.56055 180.911 4.56055C182.087 4.56055 182.647 5.18945 182.647 6.51562V11H183.823V6.22852C183.823 4.47852 182.9 3.50098 181.246 3.50098C180.118 3.50098 179.4 3.97949 179.031 4.79297H178.922V3.63086H177.801V11ZM186.469 1.72363V3.63086H185.279V4.61523H186.469V9.08594C186.469 10.4941 187.077 11.0547 188.595 11.0547C188.827 11.0547 189.053 11.0273 189.285 10.9863V9.99512C189.066 10.0156 188.95 10.0225 188.738 10.0225C187.973 10.0225 187.645 9.65332 187.645 8.78516V4.61523H189.285V3.63086H187.645V1.72363H186.469ZM190.755 5.64746C190.755 6.71387 191.384 7.30859 192.765 7.64355L194.029 7.95117C194.815 8.14258 195.198 8.48438 195.198 8.99023C195.198 9.66699 194.487 10.1387 193.496 10.1387C192.553 10.1387 191.965 9.74219 191.767 9.12012H190.557C190.687 10.3438 191.814 11.1299 193.455 11.1299C195.13 11.1299 196.408 10.2207 196.408 8.90137C196.408 7.8418 195.738 7.24023 194.351 6.90527L193.216 6.63184C192.348 6.41992 191.938 6.10547 191.938 5.59961C191.938 4.94336 192.621 4.49902 193.496 4.49902C194.385 4.49902 194.959 4.88867 195.116 5.47656H196.278C196.121 4.2666 195.048 3.50098 193.503 3.50098C191.938 3.50098 190.755 4.42383 190.755 5.64746Z" fill="white"/>
</svg>
