<svg width="21" height="18" viewBox="0 0 21 18" fill="none" xmlns="http://www.w3.org/2000/svg">
<path d="M17.4719 14.276C17.0258 13.8999 16.5915 13.6339 16.1684 13.479C15.7457 13.3239 15.2917 13.2318 14.8077 13.2028C14.3234 13.1737 13.9043 13.1866 13.5503 13.2414C13.1958 13.2961 12.842 13.3777 12.4878 13.4864C12.1334 13.5951 11.8967 13.6743 11.7776 13.7241C11.6584 13.7738 11.5672 13.8155 11.5042 13.8495C12.2472 13.0041 12.9079 12.0813 13.4859 11.0806L13.6582 11.1846C13.773 11.254 13.935 11.3353 14.1445 11.4288C14.354 11.5224 14.5973 11.6205 14.8738 11.7233C15.1502 11.8259 15.4536 11.9036 15.7832 11.956C16.1127 12.0084 16.4524 12.0398 16.8024 12.0501C17.1525 12.0606 17.5111 12.0097 17.8789 11.8979C18.2469 11.7862 18.599 11.6246 18.9347 11.4129C19.2704 11.2012 19.5978 10.8927 19.9168 10.4872C20.2362 10.0821 20.5122 9.59957 20.7447 9.0399C20.3167 8.683 19.8702 8.41051 19.4056 8.22267C18.9411 8.03471 18.5151 7.93068 18.1276 7.90982C17.7402 7.88896 17.3467 7.92227 16.9464 8.00903C16.5466 8.09601 16.2117 8.19775 15.9417 8.31385C15.6721 8.43028 15.4078 8.56957 15.1498 8.73216C14.8913 8.89458 14.7207 9.00753 14.6378 9.07131C14.5548 9.13503 14.4929 9.18803 14.4514 9.23025C14.5316 9.04479 14.6352 8.78713 14.7626 8.4575C14.89 8.12796 14.9572 7.9436 14.9638 7.90458L15.1028 7.77094C15.2031 7.68478 15.3234 7.55634 15.4642 7.38601C15.6049 7.21554 15.7605 7.01768 15.931 6.79215C16.1014 6.56652 16.2556 6.30757 16.3935 6.01527C16.5316 5.72311 16.6531 5.41411 16.7581 5.08829C16.8633 4.76253 16.9136 4.41145 16.9091 4.03504C16.9047 3.65867 16.8498 3.28348 16.7445 2.90982C16.6393 2.53597 16.4403 2.14058 16.1476 1.72349C15.8548 1.30638 15.479 0.905189 15.0201 0.519653C14.4603 0.869543 14.0128 1.27326 13.6778 1.73079C13.3428 2.18827 13.1215 2.63151 13.014 3.06045C12.9065 3.48944 12.8685 3.94303 12.9 4.4216C12.9316 4.90015 12.9969 5.31255 13.0962 5.65901C13.1955 6.00549 13.3255 6.35335 13.4859 6.70266C13.6466 7.05205 13.762 7.28183 13.8315 7.39196C13.9013 7.5023 13.9566 7.59013 13.998 7.65614C13.7936 8.18498 13.4771 8.8746 13.0484 9.72469L13.0723 9.53415C13.078 9.41143 13.0753 9.24591 13.0642 9.0377C13.053 8.82949 13.0319 8.58815 13.0005 8.31375C12.9693 8.03936 12.9053 7.75228 12.8088 7.45268C12.7124 7.15313 12.5949 6.85389 12.4565 6.55463C12.3182 6.2556 12.122 5.97157 11.8678 5.70267C11.6135 5.43382 11.3224 5.19637 10.9939 4.99028C10.6655 4.78408 10.2593 4.62317 9.77554 4.50685C9.29167 4.39068 8.75707 4.33601 8.1716 4.34291C8.01905 4.8668 7.94384 5.36861 7.94581 5.8481C7.94785 6.32766 8.01294 6.74628 8.14115 7.1039C8.26931 7.46142 8.45017 7.80189 8.68323 8.12514C8.91641 8.44843 9.16113 8.71987 9.41754 8.9398C9.67395 9.15973 9.96226 9.36696 10.2826 9.56142C10.603 9.75605 10.8841 9.90631 11.1263 10.0124C11.3684 10.1186 11.6193 10.2177 11.8794 10.3098C12.1393 10.4018 12.3113 10.4581 12.3953 10.4779C12.4794 10.4979 12.548 10.514 12.6016 10.5264C11.9651 11.6125 11.2714 12.5562 10.5208 13.3567C10.4629 12.9677 10.3729 12.5917 10.2512 12.228C10.1293 11.8647 9.91655 11.462 9.61277 11.0198C9.30887 10.5775 8.93698 10.1988 8.49703 9.88291C8.05685 9.56729 7.46082 9.30549 6.70829 9.09786C5.95564 8.89054 5.10078 8.79745 4.14326 8.81889C4.15005 9.51255 4.21549 10.1457 4.3397 10.7184C4.46411 11.2908 4.62994 11.7716 4.83796 12.1601C5.04593 12.5486 5.29669 12.891 5.59 13.1877C5.88328 13.4842 6.18042 13.7176 6.48093 13.8879C6.78153 14.0581 7.10767 14.1945 7.45935 14.2972C7.81114 14.3997 8.12991 14.4686 8.41594 14.5045C8.70193 14.54 8.99485 14.5575 9.29496 14.5568C8.0295 15.6332 6.70627 16.3479 5.32505 16.7007C3.94377 17.0538 2.62499 16.9918 1.3689 16.5147C1.23122 16.4615 1.09781 16.4619 0.968614 16.5162C0.839452 16.5704 0.748326 16.6662 0.695121 16.8038C0.641958 16.9414 0.644293 17.0754 0.702008 17.2061C0.759788 17.3365 0.857457 17.4286 0.995129 17.4818C2.50476 18.0567 4.08302 18.1154 5.72985 17.6568C7.37679 17.1981 8.92873 16.3013 10.3856 14.9659L10.5285 15.1459C10.6165 15.2631 10.7517 15.409 10.934 15.5835C11.1162 15.7581 11.3295 15.955 11.5737 16.1742C11.8179 16.3935 12.1003 16.5941 12.4213 16.7764C12.7421 16.9589 13.0799 17.1247 13.4342 17.2742C13.7887 17.4236 14.1766 17.5134 14.5983 17.5428C15.0198 17.5724 15.4436 17.5425 15.8692 17.4531C16.295 17.3638 16.7488 17.1705 17.2298 16.8734C17.7111 16.5768 18.1794 16.1833 18.6353 15.6933C18.3051 15.1246 17.9174 14.6521 17.4719 14.276Z" fill="#2DDA93"/>
</svg>
